<svg xmlns="http://www.w3.org/2000/svg" viewBox="0 0 1400 1100" font-family="-apple-system, BlinkMacSystemFont, 'Segoe UI', sans-serif">
  <defs>
    <marker id="arrow" viewBox="0 0 10 7" refX="10" refY="3.5" markerWidth="8" markerHeight="6" orient="auto-start-reverse">
      <polygon points="0 0, 10 3.5, 0 7" fill="#555" />
    </marker>
    <marker id="arrow-green" viewBox="0 0 10 7" refX="10" refY="3.5" markerWidth="8" markerHeight="6" orient="auto-start-reverse">
      <polygon points="0 0, 10 3.5, 0 7" fill="#2ea043" />
    </marker>
    <marker id="arrow-blue" viewBox="0 0 10 7" refX="10" refY="3.5" markerWidth="8" markerHeight="6" orient="auto-start-reverse">
      <polygon points="0 0, 10 3.5, 0 7" fill="#3b82f6" />
    </marker>
    <marker id="arrow-yellow" viewBox="0 0 10 7" refX="10" refY="3.5" markerWidth="8" markerHeight="6" orient="auto-start-reverse">
      <polygon points="0 0, 10 3.5, 0 7" fill="#eab308" />
    </marker>
    <filter id="shadow" x="-4%" y="-4%" width="108%" height="116%">
      <feDropShadow dx="0" dy="2" stdDeviation="4" flood-color="#000" flood-opacity="0.3"/>
    </filter>
    <linearGradient id="bg-gradient" x1="0" y1="0" x2="0" y2="1">
      <stop offset="0%" stop-color="#0d0d0d"/>
      <stop offset="100%" stop-color="#111118"/>
    </linearGradient>
  </defs>

  <!-- Background -->
  <rect width="1400" height="1100" fill="url(#bg-gradient)" rx="12"/>

  <!-- Title -->
  <text x="700" y="45" text-anchor="middle" fill="#ededed" font-size="22" font-weight="700">veriel-ops — Arquitectura de Despliegue</text>
  <text x="700" y="68" text-anchor="middle" fill="#666" font-size="13">Flujo completo: creacion de proyecto + deploy por entorno + custom domains</text>

  <!-- ═══════════════════════════════════════════════════════ -->
  <!-- SECTION 1: SSE Pipeline (top) -->
  <!-- ═══════════════════════════════════════════════════════ -->

  <text x="50" y="110" fill="#888" font-size="11" font-weight="600" letter-spacing="1.5">SSE PIPELINE — CREACION DE PROYECTO</text>
  <line x1="50" y1="118" x2="1350" y2="118" stroke="#222" stroke-width="1"/>

  <!-- Dashboard box -->
  <rect x="50" y="135" width="180" height="70" rx="10" fill="#1a1a2e" stroke="#3b82f6" stroke-width="1.5" filter="url(#shadow)"/>
  <text x="140" y="165" text-anchor="middle" fill="#ededed" font-size="13" font-weight="600">Dashboard</text>
  <text x="140" y="183" text-anchor="middle" fill="#666" font-size="11">New Project form</text>

  <!-- Arrow to SSE -->
  <line x1="230" y1="170" x2="300" y2="170" stroke="#555" stroke-width="1.5" marker-end="url(#arrow)"/>
  <text x="265" y="162" text-anchor="middle" fill="#555" font-size="9">SSE</text>

  <!-- Job 1: Setup Repo -->
  <rect x="310" y="130" width="250" height="85" rx="10" fill="#111" stroke="#2ea043" stroke-width="1.5" filter="url(#shadow)"/>
  <rect x="310" y="130" width="250" height="4" rx="2" fill="#2ea043"/>
  <text x="435" y="157" text-anchor="middle" fill="#ededed" font-size="12" font-weight="600">1. Setup Repository</text>
  <text x="435" y="175" text-anchor="middle" fill="#888" font-size="10">GitHub API</text>
  <text x="330" y="195" fill="#666" font-size="10">Crear repo + workflows + branch develop</text>

  <!-- Connector -->
  <line x1="560" y1="170" x2="600" y2="170" stroke="#2ea043" stroke-width="1.5" stroke-opacity="0.5" marker-end="url(#arrow-green)"/>

  <!-- Job 2: Configure Infra -->
  <rect x="610" y="130" width="250" height="85" rx="10" fill="#111" stroke="#eab308" stroke-width="1.5" filter="url(#shadow)"/>
  <rect x="610" y="130" width="250" height="4" rx="2" fill="#eab308"/>
  <text x="735" y="157" text-anchor="middle" fill="#ededed" font-size="12" font-weight="600">2. Configure Infrastructure</text>
  <text x="735" y="175" text-anchor="middle" fill="#888" font-size="10">Cloudflare API</text>
  <text x="630" y="195" fill="#666" font-size="10">Pages project + CNAME + custom domain</text>

  <!-- Connector -->
  <line x1="860" y1="170" x2="900" y2="170" stroke="#eab308" stroke-width="1.5" stroke-opacity="0.5" marker-end="url(#arrow-yellow)"/>

  <!-- Job 3: Deploy DES -->
  <rect x="910" y="130" width="280" height="85" rx="10" fill="#111" stroke="#3b82f6" stroke-width="1.5" filter="url(#shadow)"/>
  <rect x="910" y="130" width="280" height="4" rx="2" fill="#3b82f6"/>
  <text x="1050" y="157" text-anchor="middle" fill="#ededed" font-size="12" font-weight="600">3. Deploy DES (GitHub Actions)</text>
  <text x="1050" y="175" text-anchor="middle" fill="#888" font-size="10">Polling real del workflow run</text>
  <text x="930" y="195" fill="#666" font-size="10">Jobs/steps/tiempos reales de GH Actions</text>

  <!-- Result -->
  <rect x="1210" y="140" width="140" height="60" rx="10" fill="#162312" stroke="#2ea043" stroke-width="1" filter="url(#shadow)"/>
  <text x="1280" y="167" text-anchor="middle" fill="#2ea043" font-size="11" font-weight="600">Deploy Complete</text>
  <text x="1280" y="184" text-anchor="middle" fill="#666" font-size="10">commit + URL + run</text>
  <line x1="1190" y1="170" x2="1210" y2="170" stroke="#2ea043" stroke-width="1.5" marker-end="url(#arrow-green)"/>

  <!-- ═══════════════════════════════════════════════════════ -->
  <!-- SECTION 2: Pages Architecture (middle) -->
  <!-- ═══════════════════════════════════════════════════════ -->

  <text x="50" y="270" fill="#888" font-size="11" font-weight="600" letter-spacing="1.5">ARQUITECTURA CLOUDFLARE PAGES — 1 PROYECTO POR ENTORNO</text>
  <line x1="50" y1="278" x2="1350" y2="278" stroke="#222" stroke-width="1"/>

  <!-- GitHub Repo -->
  <rect x="50" y="300" width="260" height="200" rx="12" fill="#111" stroke="#333" stroke-width="1.5" filter="url(#shadow)"/>
  <text x="180" y="328" text-anchor="middle" fill="#ededed" font-size="13" font-weight="600">GitHub Repository</text>
  <text x="180" y="346" text-anchor="middle" fill="#555" font-size="11">veriel-cloud/demo-app</text>

  <!-- Branches -->
  <rect x="75" y="365" width="210" height="30" rx="6" fill="#1a2332" stroke="#3b82f6" stroke-width="1"/>
  <circle cx="92" cy="380" r="5" fill="#3b82f6"/>
  <text x="105" y="385" fill="#3b82f6" font-size="12" font-weight="500">develop</text>
  <text x="265" y="385" text-anchor="end" fill="#555" font-size="10">push triggers DES</text>

  <rect x="75" y="405" width="210" height="30" rx="6" fill="#2a2314" stroke="#eab308" stroke-width="1"/>
  <circle cx="92" cy="420" r="5" fill="#eab308"/>
  <text x="105" y="425" fill="#eab308" font-size="12" font-weight="500">release/*</text>
  <text x="265" y="425" text-anchor="end" fill="#555" font-size="10">push triggers PRE</text>

  <rect x="75" y="445" width="210" height="30" rx="6" fill="#142314" stroke="#22c55e" stroke-width="1"/>
  <circle cx="92" cy="460" r="5" fill="#22c55e"/>
  <text x="105" y="465" fill="#22c55e" font-size="12" font-weight="500">main</text>
  <text x="265" y="465" text-anchor="end" fill="#555" font-size="10">push triggers PRO</text>

  <!-- Arrows from branches to Pages projects -->
  <line x1="310" y1="380" x2="440" y2="345" stroke="#3b82f6" stroke-width="1.5" stroke-dasharray="6 3" marker-end="url(#arrow-blue)"/>
  <line x1="310" y1="420" x2="440" y2="420" stroke="#eab308" stroke-width="1.5" stroke-dasharray="6 3" marker-end="url(#arrow-yellow)"/>
  <line x1="310" y1="460" x2="440" y2="490" stroke="#22c55e" stroke-width="1.5" stroke-dasharray="6 3" marker-end="url(#arrow-green)"/>

  <!-- wrangler labels -->
  <text x="375" y="352" text-anchor="middle" fill="#3b82f6" font-size="9" transform="rotate(-8 375 352)">wrangler</text>
  <text x="375" y="414" text-anchor="middle" fill="#eab308" font-size="9">wrangler</text>
  <text x="375" y="480" text-anchor="middle" fill="#22c55e" font-size="9" transform="rotate(8 375 480)">wrangler</text>

  <!-- Pages Project DES -->
  <rect x="450" y="300" width="280" height="70" rx="10" fill="#111" stroke="#3b82f6" stroke-width="1.5" filter="url(#shadow)"/>
  <rect x="450" y="300" width="5" height="70" rx="2" fill="#3b82f6"/>
  <text x="480" y="325" fill="#3b82f6" font-size="10" font-weight="700">DES</text>
  <text x="520" y="325" fill="#ededed" font-size="12" font-weight="500">demo-app-des</text>
  <text x="480" y="345" fill="#555" font-size="10">production_branch: develop</text>
  <text x="480" y="360" fill="#555" font-size="10">demo-app-des-x4k.pages.dev</text>

  <!-- Pages Project PRE -->
  <rect x="450" y="390" width="280" height="70" rx="10" fill="#111" stroke="#eab308" stroke-width="1.5" filter="url(#shadow)"/>
  <rect x="450" y="390" width="5" height="70" rx="2" fill="#eab308"/>
  <text x="480" y="415" fill="#eab308" font-size="10" font-weight="700">PRE</text>
  <text x="520" y="415" fill="#ededed" font-size="12" font-weight="500">demo-app-pre</text>
  <text x="480" y="435" fill="#555" font-size="10">production_branch: release</text>
  <text x="480" y="450" fill="#555" font-size="10">demo-app-pre-abc.pages.dev</text>

  <!-- Pages Project PRO -->
  <rect x="450" y="480" width="280" height="70" rx="10" fill="#111" stroke="#22c55e" stroke-width="1.5" filter="url(#shadow)"/>
  <rect x="450" y="480" width="5" height="70" rx="2" fill="#22c55e"/>
  <text x="480" y="505" fill="#22c55e" font-size="10" font-weight="700">PRO</text>
  <text x="520" y="505" fill="#ededed" font-size="12" font-weight="500">demo-app</text>
  <text x="480" y="525" fill="#555" font-size="10">production_branch: main</text>
  <text x="480" y="540" fill="#555" font-size="10">demo-app-xyz.pages.dev</text>

  <!-- Arrows to DNS -->
  <line x1="730" y1="335" x2="820" y2="335" stroke="#3b82f6" stroke-width="1.5" marker-end="url(#arrow-blue)"/>
  <line x1="730" y1="425" x2="820" y2="425" stroke="#eab308" stroke-width="1.5" marker-end="url(#arrow-yellow)"/>
  <line x1="730" y1="515" x2="820" y2="515" stroke="#22c55e" stroke-width="1.5" marker-end="url(#arrow-green)"/>

  <text x="775" y="328" text-anchor="middle" fill="#555" font-size="9">CNAME</text>
  <text x="775" y="418" text-anchor="middle" fill="#555" font-size="9">CNAME</text>
  <text x="775" y="508" text-anchor="middle" fill="#555" font-size="9">CNAME</text>

  <!-- DNS / Domains -->
  <rect x="830" y="295" width="300" height="240" rx="12" fill="#111" stroke="#333" stroke-width="1.5" filter="url(#shadow)"/>
  <text x="980" y="322" text-anchor="middle" fill="#ededed" font-size="13" font-weight="600">Cloudflare DNS + SSL</text>
  <text x="980" y="340" text-anchor="middle" fill="#555" font-size="11">veriel.dev zone</text>

  <!-- Domain entries -->
  <rect x="855" y="355" width="250" height="36" rx="6" fill="#1a2332" stroke="#3b82f6" stroke-width="1"/>
  <text x="870" y="370" fill="#3b82f6" font-size="11" font-weight="500">demo-app-des.veriel.dev</text>
  <rect x="870" y="376" width="20" height="10" rx="3" fill="#2ea043"/>
  <text x="895" y="384" fill="#666" font-size="8">SSL</text>

  <rect x="855" y="400" width="250" height="36" rx="6" fill="#2a2314" stroke="#eab308" stroke-width="1"/>
  <text x="870" y="415" fill="#eab308" font-size="11" font-weight="500">demo-app-pre.veriel.dev</text>
  <rect x="870" y="421" width="20" height="10" rx="3" fill="#2ea043"/>
  <text x="895" y="429" fill="#666" font-size="8">SSL</text>

  <rect x="855" y="445" width="250" height="36" rx="6" fill="#142314" stroke="#22c55e" stroke-width="1"/>
  <text x="870" y="460" fill="#22c55e" font-size="11" font-weight="500">demo-app.veriel.dev</text>
  <rect x="870" y="466" width="20" height="10" rx="3" fill="#2ea043"/>
  <text x="895" y="474" fill="#666" font-size="8">SSL</text>

  <text x="980" y="506" text-anchor="middle" fill="#555" font-size="10">Todos subdominios de 1 nivel</text>
  <text x="980" y="520" text-anchor="middle" fill="#555" font-size="10">*.veriel.dev = SSL gratuito universal</text>

  <!-- ═══════════════════════════════════════════════════════ -->
  <!-- SECTION 3: Deploy flow per environment -->
  <!-- ═══════════════════════════════════════════════════════ -->

  <text x="50" y="590" fill="#888" font-size="11" font-weight="600" letter-spacing="1.5">FLUJO DE DEPLOY POR ENTORNO</text>
  <line x1="50" y1="598" x2="1350" y2="598" stroke="#222" stroke-width="1"/>

  <!-- DES Flow -->
  <rect x="50" y="615" width="100" height="34" rx="8" fill="#1a2332" stroke="#3b82f6" stroke-width="1.5"/>
  <text x="100" y="637" text-anchor="middle" fill="#3b82f6" font-size="12" font-weight="600">DES</text>
  <line x1="150" y1="632" x2="185" y2="632" stroke="#555" stroke-width="1" marker-end="url(#arrow)"/>
  <rect x="190" y="618" width="130" height="28" rx="6" fill="#1a1a1a" stroke="#333" stroke-width="1"/>
  <text x="255" y="637" text-anchor="middle" fill="#888" font-size="10">push develop</text>
  <line x1="320" y1="632" x2="355" y2="632" stroke="#555" stroke-width="1" marker-end="url(#arrow)"/>
  <rect x="360" y="618" width="130" height="28" rx="6" fill="#1a1a1a" stroke="#333" stroke-width="1"/>
  <text x="425" y="637" text-anchor="middle" fill="#888" font-size="10">Build + Deploy</text>
  <line x1="490" y1="632" x2="525" y2="632" stroke="#555" stroke-width="1" marker-end="url(#arrow)"/>
  <rect x="530" y="618" width="150" height="28" rx="6" fill="#1a1a1a" stroke="#3b82f6" stroke-width="1"/>
  <text x="605" y="637" text-anchor="middle" fill="#3b82f6" font-size="10">wrangler → X-des</text>
  <line x1="680" y1="632" x2="715" y2="632" stroke="#555" stroke-width="1" marker-end="url(#arrow)"/>
  <rect x="720" y="618" width="120" height="28" rx="6" fill="#1a1a1a" stroke="#333" stroke-width="1"/>
  <text x="780" y="637" text-anchor="middle" fill="#888" font-size="10">Store en R2</text>

  <!-- PRE Flow -->
  <rect x="50" y="665" width="100" height="34" rx="8" fill="#2a2314" stroke="#eab308" stroke-width="1.5"/>
  <text x="100" y="687" text-anchor="middle" fill="#eab308" font-size="12" font-weight="600">PRE</text>
  <line x1="150" y1="682" x2="185" y2="682" stroke="#555" stroke-width="1" marker-end="url(#arrow)"/>
  <rect x="190" y="668" width="130" height="28" rx="6" fill="#1a1a1a" stroke="#333" stroke-width="1"/>
  <text x="255" y="687" text-anchor="middle" fill="#888" font-size="10">push release/*</text>
  <line x1="320" y1="682" x2="355" y2="682" stroke="#555" stroke-width="1" marker-end="url(#arrow)"/>
  <rect x="360" y="668" width="130" height="28" rx="6" fill="#1a1a1a" stroke="#f85149" stroke-width="1"/>
  <text x="425" y="687" text-anchor="middle" fill="#f85149" font-size="10">CI Gate >= 80%</text>
  <line x1="490" y1="682" x2="525" y2="682" stroke="#555" stroke-width="1" marker-end="url(#arrow)"/>
  <rect x="530" y="668" width="150" height="28" rx="6" fill="#1a1a1a" stroke="#eab308" stroke-width="1"/>
  <text x="605" y="687" text-anchor="middle" fill="#eab308" font-size="10">wrangler → X-pre</text>
  <line x1="680" y1="682" x2="715" y2="682" stroke="#555" stroke-width="1" marker-end="url(#arrow)"/>
  <rect x="720" y="668" width="120" height="28" rx="6" fill="#1a1a1a" stroke="#333" stroke-width="1"/>
  <text x="780" y="687" text-anchor="middle" fill="#888" font-size="10">Store en R2</text>

  <!-- PRO Flow -->
  <rect x="50" y="715" width="100" height="34" rx="8" fill="#142314" stroke="#22c55e" stroke-width="1.5"/>
  <text x="100" y="737" text-anchor="middle" fill="#22c55e" font-size="12" font-weight="600">PRO</text>
  <line x1="150" y1="732" x2="185" y2="732" stroke="#555" stroke-width="1" marker-end="url(#arrow)"/>
  <rect x="190" y="718" width="130" height="28" rx="6" fill="#1a1a1a" stroke="#333" stroke-width="1"/>
  <text x="255" y="737" text-anchor="middle" fill="#888" font-size="10">merge a main</text>
  <line x1="320" y1="732" x2="355" y2="732" stroke="#555" stroke-width="1" marker-end="url(#arrow)"/>
  <rect x="360" y="718" width="130" height="28" rx="6" fill="#1a1a1a" stroke="#f85149" stroke-width="1"/>
  <text x="425" y="737" text-anchor="middle" fill="#f85149" font-size="10">CI Gate >= 80%</text>
  <line x1="490" y1="732" x2="525" y2="732" stroke="#555" stroke-width="1" marker-end="url(#arrow)"/>
  <rect x="530" y="718" width="150" height="28" rx="6" fill="#1a1a1a" stroke="#22c55e" stroke-width="1"/>
  <text x="605" y="737" text-anchor="middle" fill="#22c55e" font-size="10">wrangler → X</text>
  <line x1="680" y1="732" x2="715" y2="732" stroke="#555" stroke-width="1" marker-end="url(#arrow)"/>
  <rect x="720" y="718" width="120" height="28" rx="6" fill="#1a1a1a" stroke="#333" stroke-width="1"/>
  <text x="780" y="737" text-anchor="middle" fill="#888" font-size="10">Store + Tag</text>

  <!-- Rollback -->
  <rect x="900" y="660" width="220" height="90" rx="10" fill="#111" stroke="#f85149" stroke-width="1" stroke-dasharray="4 3" filter="url(#shadow)"/>
  <text x="1010" y="688" text-anchor="middle" fill="#f85149" font-size="12" font-weight="600">Rollback</text>
  <text x="1010" y="706" text-anchor="middle" fill="#666" font-size="10">workflow_dispatch manual</text>
  <text x="1010" y="722" text-anchor="middle" fill="#666" font-size="10">Descarga build de R2</text>
  <text x="1010" y="738" text-anchor="middle" fill="#666" font-size="10">Redeploy al proyecto correcto</text>

  <line x1="840" y1="695" x2="900" y2="695" stroke="#f85149" stroke-width="1" stroke-dasharray="4 3" marker-end="url(#arrow)"/>

  <!-- ═══════════════════════════════════════════════════════ -->
  <!-- SECTION 4: SSE Timeline detail -->
  <!-- ═══════════════════════════════════════════════════════ -->

  <text x="50" y="800" fill="#888" font-size="11" font-weight="600" letter-spacing="1.5">DETALLE SSE — COMO EL BACKEND MONITORIZA GITHUB ACTIONS</text>
  <line x1="50" y1="808" x2="1350" y2="808" stroke="#222" stroke-width="1"/>

  <!-- Phase 1 -->
  <rect x="50" y="825" width="380" height="250" rx="12" fill="#111" stroke="#333" stroke-width="1" filter="url(#shadow)"/>
  <rect x="50" y="825" width="380" height="30" rx="12" fill="#1a1a1a"/>
  <rect x="50" y="843" width="380" height="12" fill="#1a1a1a"/>
  <text x="240" y="845" text-anchor="middle" fill="#ededed" font-size="12" font-weight="600">Fase 1 — API Calls directas</text>
  <text x="240" y="862" text-anchor="middle" fill="#555" font-size="10">Tiempos reales de las llamadas API</text>

  <text x="75" y="890" fill="#2ea043" font-size="11">1.</text>
  <text x="95" y="890" fill="#aaa" font-size="11">github.createRepo(name, template)</text>
  <text x="75" y="912" fill="#2ea043" font-size="11">2.</text>
  <text x="95" y="912" fill="#aaa" font-size="11">github.addWorkflowCallers(5 files)</text>
  <text x="75" y="934" fill="#2ea043" font-size="11">3.</text>
  <text x="95" y="934" fill="#aaa" font-size="11">github.createBranch("develop")</text>
  <text x="310" y="934" fill="#3b82f6" font-size="9">guarda timestamp</text>
  <text x="75" y="956" fill="#eab308" font-size="11">4.</text>
  <text x="95" y="956" fill="#aaa" font-size="11">cloudflare.createPagesProjectForEnv()</text>
  <text x="75" y="978" fill="#eab308" font-size="11">5.</text>
  <text x="95" y="978" fill="#aaa" font-size="11">cloudflare.setupEnvDns(CNAME + domain)</text>

  <text x="240" y="1010" text-anchor="middle" fill="#555" font-size="10">El push a develop dispara el workflow</text>
  <text x="240" y="1025" text-anchor="middle" fill="#555" font-size="10">de GitHub Actions automaticamente</text>

  <!-- Arrow between phases -->
  <line x1="430" y1="950" x2="500" y2="950" stroke="#555" stroke-width="1.5" marker-end="url(#arrow)"/>
  <text x="465" y="942" text-anchor="middle" fill="#555" font-size="9">trigger</text>

  <!-- Phase 2 -->
  <rect x="510" y="825" width="440" height="250" rx="12" fill="#111" stroke="#333" stroke-width="1" filter="url(#shadow)"/>
  <rect x="510" y="825" width="440" height="30" rx="12" fill="#1a1a1a"/>
  <rect x="510" y="843" width="440" height="12" fill="#1a1a1a"/>
  <text x="730" y="845" text-anchor="middle" fill="#ededed" font-size="12" font-weight="600">Fase 2 — Polling GitHub Actions API</text>
  <text x="730" y="862" text-anchor="middle" fill="#555" font-size="10">Tiempos reales del workflow run</text>

  <text x="535" y="890" fill="#3b82f6" font-size="11">1.</text>
  <text x="555" y="890" fill="#aaa" font-size="11">waitForWorkflowRun() — polling cada 4s</text>
  <text x="555" y="906" fill="#666" font-size="10">Busca run en branch "develop" creado despues del timestamp</text>

  <text x="535" y="932" fill="#3b82f6" font-size="11">2.</text>
  <text x="555" y="932" fill="#aaa" font-size="11">Encontrado run #12345 — emite step success</text>

  <text x="535" y="958" fill="#3b82f6" font-size="11">3.</text>
  <text x="555" y="958" fill="#aaa" font-size="11">Loop polling cada 5s:</text>
  <text x="570" y="976" fill="#666" font-size="10">getWorkflowRun(repo, runId) — estado global</text>
  <text x="570" y="992" fill="#666" font-size="10">getWorkflowRunJobs(repo, runId) — jobs + steps</text>
  <text x="570" y="1008" fill="#666" font-size="10">Emite eventos SSE con status/duration/logs reales</text>

  <text x="535" y="1035" fill="#2ea043" font-size="11">4.</text>
  <text x="555" y="1035" fill="#aaa" font-size="11">run.status === "completed" → emite evento complete</text>
  <text x="555" y="1051" fill="#666" font-size="10">Incluye ghRunUrl, commit SHA, totalDuration real</text>

  <!-- Frontend box -->
  <rect x="980" y="880" width="220" height="170" rx="10" fill="#1a1a2e" stroke="#3b82f6" stroke-width="1" filter="url(#shadow)"/>
  <text x="1090" y="905" text-anchor="middle" fill="#ededed" font-size="12" font-weight="600">Frontend (React)</text>
  <text x="1010" y="928" fill="#666" font-size="10">event: init → crear estructura</text>
  <text x="1010" y="946" fill="#666" font-size="10">event: job → actualizar job</text>
  <text x="1010" y="964" fill="#666" font-size="10">event: step → actualizar step</text>
  <text x="1010" y="982" fill="#666" font-size="10">   (o crear si es nuevo)</text>
  <text x="1010" y="1000" fill="#666" font-size="10">event: complete → resultado</text>
  <text x="1010" y="1018" fill="#666" font-size="10">event: error → mostrar error</text>

  <text x="1090" y="1040" text-anchor="middle" fill="#555" font-size="9">WorkflowRun component</text>

  <line x1="950" y1="950" x2="980" y2="950" stroke="#3b82f6" stroke-width="1" stroke-dasharray="4 3" marker-end="url(#arrow-blue)"/>
  <text x="963" y="942" text-anchor="middle" fill="#3b82f6" font-size="8">SSE</text>

  <!-- Footer -->
  <text x="700" y="1090" text-anchor="middle" fill="#444" font-size="10">veriel-ops v0.2 — veriel.dev</text>
</svg>
